<mxfile host="app.diagrams.net" agent="Mozilla/5.0 (Windows NT 10.0; Win64; x64) AppleWebKit/537.36 (KHTML, like Gecko) Chrome/135.0.0.0 Safari/537.36 OPR/120.0.0.0" version="28.1.2">
  <diagram name="Page-1" id="c5OmrM6MlewU9U3bdkrM">
    <mxGraphModel dx="2572" dy="1632" grid="1" gridSize="10" guides="1" tooltips="1" connect="1" arrows="1" fold="1" page="1" pageScale="1" pageWidth="827" pageHeight="1169" math="0" shadow="0">
      <root>
        <mxCell id="0" />
        <mxCell id="1" parent="0" />
        <mxCell id="hNqhsEIu-VsiZdFPxnfq-1" value="" style="group" vertex="1" connectable="0" parent="1">
          <mxGeometry x="940" y="700" width="830" height="250" as="geometry" />
        </mxCell>
        <mxCell id="hNqhsEIu-VsiZdFPxnfq-2" value="Orchestrator&lt;br&gt;(RxJS + NodeJS)" style="rounded=1;whiteSpace=wrap;html=1;fontSize=12;fontColor=#000000;strokeColor=#000000;fillColor=#FFFFFF;" vertex="1" parent="hNqhsEIu-VsiZdFPxnfq-1">
          <mxGeometry x="360" y="180" width="140" height="70" as="geometry" />
        </mxCell>
        <mxCell id="hNqhsEIu-VsiZdFPxnfq-3" value="&lt;font style=&quot;color: light-dark(rgb(0, 0, 0), rgb(255, 244, 243));&quot;&gt;App&lt;br&gt;(AppMessage)&lt;/font&gt;" style="rounded=1;whiteSpace=wrap;html=1;fontSize=11;strokeColor=#2D7600;fillColor=#60a917;fontColor=#ffffff;" vertex="1" parent="hNqhsEIu-VsiZdFPxnfq-1">
          <mxGeometry x="150" y="190" width="120" height="50" as="geometry" />
        </mxCell>
        <mxCell id="hNqhsEIu-VsiZdFPxnfq-4" value="Sys&lt;br&gt;(SysMessage)" style="rounded=1;whiteSpace=wrap;html=1;fontSize=10;fontColor=default;strokeColor=#FF6D00;fillColor=#FFE0B2;align=center;verticalAlign=top;spacingLeft=5;spacingTop=5;fontFamily=Helvetica;gradientColor=none;" vertex="1" parent="hNqhsEIu-VsiZdFPxnfq-1">
          <mxGeometry x="370" width="120" height="50" as="geometry" />
        </mxCell>
        <mxCell id="hNqhsEIu-VsiZdFPxnfq-5" value="&lt;font style=&quot;color: light-dark(rgb(0, 0, 0), rgb(255, 250, 248));&quot;&gt;UI&lt;br&gt;(UIMessage)&lt;/font&gt;" style="rounded=1;whiteSpace=wrap;html=1;fontSize=11;fontColor=#ffffff;strokeColor=#006EAF;fillColor=#1ba1e2;" vertex="1" parent="hNqhsEIu-VsiZdFPxnfq-1">
          <mxGeometry x="590" y="190" width="120" height="50" as="geometry" />
        </mxCell>
        <mxCell id="hNqhsEIu-VsiZdFPxnfq-6" style="edgeStyle=orthogonalEdgeStyle;elbow=horizontal;strokeColor=#000000;dashed=1;" edge="1" parent="hNqhsEIu-VsiZdFPxnfq-1" source="hNqhsEIu-VsiZdFPxnfq-2" target="hNqhsEIu-VsiZdFPxnfq-3">
          <mxGeometry relative="1" as="geometry" />
        </mxCell>
        <mxCell id="hNqhsEIu-VsiZdFPxnfq-7" style="edgeStyle=orthogonalEdgeStyle;elbow=horizontal;strokeColor=#000000;dashed=1;" edge="1" parent="hNqhsEIu-VsiZdFPxnfq-1" source="hNqhsEIu-VsiZdFPxnfq-2" target="hNqhsEIu-VsiZdFPxnfq-4">
          <mxGeometry relative="1" as="geometry" />
        </mxCell>
        <mxCell id="hNqhsEIu-VsiZdFPxnfq-8" style="edgeStyle=orthogonalEdgeStyle;elbow=horizontal;strokeColor=#000000;dashed=1;" edge="1" parent="hNqhsEIu-VsiZdFPxnfq-1" source="hNqhsEIu-VsiZdFPxnfq-2" target="hNqhsEIu-VsiZdFPxnfq-5">
          <mxGeometry relative="1" as="geometry" />
        </mxCell>
        <mxCell id="hNqhsEIu-VsiZdFPxnfq-9" value="" style="group" vertex="1" connectable="0" parent="1">
          <mxGeometry x="1140" y="320" width="516" height="340.05999999999995" as="geometry" />
        </mxCell>
        <mxCell id="hNqhsEIu-VsiZdFPxnfq-10" style="edgeStyle=orthogonalEdgeStyle;rounded=0;orthogonalLoop=1;jettySize=auto;html=1;strokeColor=#FF6D00;strokeWidth=2;endArrow=classic;endFill=1;" edge="1" parent="hNqhsEIu-VsiZdFPxnfq-9">
          <mxGeometry relative="1" as="geometry">
            <Array as="points">
              <mxPoint x="309.03" y="30.059999999999945" />
              <mxPoint x="229.02999999999997" y="30.059999999999945" />
              <mxPoint x="229.02999999999997" y="60.059999999999945" />
            </Array>
            <mxPoint x="329.03" y="30.059999999999945" as="sourcePoint" />
            <mxPoint x="309.03" y="60.059999999999945" as="targetPoint" />
          </mxGeometry>
        </mxCell>
        <mxCell id="hNqhsEIu-VsiZdFPxnfq-11" value="&lt;font style=&quot;font-size: 8px;&quot;&gt;SysOutMessage&lt;/font&gt;" style="edgeLabel;html=1;align=center;verticalAlign=middle;resizable=0;points=[];fontSize=11;fontStyle=1;labelBackgroundColor=#FFFFFF;" vertex="1" connectable="0" parent="hNqhsEIu-VsiZdFPxnfq-10">
          <mxGeometry x="-0.2" y="1" relative="1" as="geometry">
            <mxPoint y="-10" as="offset" />
          </mxGeometry>
        </mxCell>
        <mxCell id="hNqhsEIu-VsiZdFPxnfq-12" style="edgeStyle=orthogonalEdgeStyle;rounded=0;orthogonalLoop=1;jettySize=auto;html=1;strokeColor=#01579B;strokeWidth=2;startArrow=none;startFill=0;endArrow=classic;endFill=1;" edge="1" parent="hNqhsEIu-VsiZdFPxnfq-9">
          <mxGeometry relative="1" as="geometry">
            <Array as="points">
              <mxPoint x="388.97" />
              <mxPoint x="448.97" />
              <mxPoint x="448.97" y="65" />
            </Array>
            <mxPoint x="388.97" y="55" as="sourcePoint" />
            <mxPoint x="428.97" y="65" as="targetPoint" />
          </mxGeometry>
        </mxCell>
        <mxCell id="hNqhsEIu-VsiZdFPxnfq-13" value="&lt;font style=&quot;font-size: 8px;&quot;&gt;UIOutMessage&lt;/font&gt;" style="edgeLabel;html=1;align=center;verticalAlign=middle;resizable=0;points=[];fontSize=10;fontStyle=1;labelBackgroundColor=#FFFFFF;" vertex="1" connectable="0" parent="hNqhsEIu-VsiZdFPxnfq-12">
          <mxGeometry relative="1" as="geometry">
            <mxPoint x="-30" as="offset" />
          </mxGeometry>
        </mxCell>
        <mxCell id="hNqhsEIu-VsiZdFPxnfq-14" value="" style="group" vertex="1" connectable="0" parent="hNqhsEIu-VsiZdFPxnfq-9">
          <mxGeometry y="70.05999999999995" width="516" height="270" as="geometry" />
        </mxCell>
        <mxCell id="hNqhsEIu-VsiZdFPxnfq-15" value="&lt;font style=&quot;font-size: 9px;&quot;&gt;SysChannelMessage&lt;/font&gt;" style="shape=mxgraph.signs.tech.mail;html=1;pointerEvents=1;fillColor=#FFF9C4;strokeColor=#F57C00;verticalLabelPosition=bottom;verticalAlign=top;align=center;sketch=0;" vertex="1" parent="hNqhsEIu-VsiZdFPxnfq-14">
          <mxGeometry x="229" y="30" width="80" height="40" as="geometry" />
        </mxCell>
        <mxCell id="hNqhsEIu-VsiZdFPxnfq-16" style="edgeStyle=orthogonalEdgeStyle;rounded=0;orthogonalLoop=1;jettySize=auto;html=1;strokeColor=#F57C00;strokeWidth=1;dashed=1;endArrow=none;endFill=0;startArrow=classic;startFill=1;" edge="1" parent="hNqhsEIu-VsiZdFPxnfq-14" source="hNqhsEIu-VsiZdFPxnfq-15">
          <mxGeometry relative="1" as="geometry">
            <mxPoint x="180" y="-0.05999999999994543" as="targetPoint" />
          </mxGeometry>
        </mxCell>
        <mxCell id="hNqhsEIu-VsiZdFPxnfq-17" value="&lt;font style=&quot;font-size: 8px;&quot;&gt;SysMessage&lt;/font&gt;" style="edgeLabel;html=1;align=center;verticalAlign=middle;resizable=0;points=[];" vertex="1" connectable="0" parent="hNqhsEIu-VsiZdFPxnfq-16">
          <mxGeometry x="-0.3879" y="-1" relative="1" as="geometry">
            <mxPoint as="offset" />
          </mxGeometry>
        </mxCell>
        <mxCell id="hNqhsEIu-VsiZdFPxnfq-18" value="&lt;font style=&quot;font-size: 9px;&quot;&gt;AppChannelMessage&lt;/font&gt;" style="shape=mxgraph.signs.tech.mail;html=1;pointerEvents=1;fillColor=#C8E6C9;strokeColor=#2E7D32;verticalLabelPosition=bottom;verticalAlign=top;align=center;sketch=0;" vertex="1" parent="hNqhsEIu-VsiZdFPxnfq-14">
          <mxGeometry x="79" y="30" width="80" height="40" as="geometry" />
        </mxCell>
        <mxCell id="hNqhsEIu-VsiZdFPxnfq-19" style="edgeStyle=orthogonalEdgeStyle;rounded=0;orthogonalLoop=1;jettySize=auto;html=1;strokeColor=#2E7D32;strokeWidth=1;dashed=1;endArrow=none;endFill=0;startArrow=classic;startFill=1;" edge="1" parent="hNqhsEIu-VsiZdFPxnfq-14" source="hNqhsEIu-VsiZdFPxnfq-18">
          <mxGeometry relative="1" as="geometry">
            <mxPoint x="10" y="9.940000000000055" as="targetPoint" />
          </mxGeometry>
        </mxCell>
        <mxCell id="hNqhsEIu-VsiZdFPxnfq-20" value="&lt;font style=&quot;font-size: 8px;&quot;&gt;AppInMessage&lt;/font&gt;" style="edgeLabel;html=1;align=center;verticalAlign=middle;resizable=0;points=[];" vertex="1" connectable="0" parent="hNqhsEIu-VsiZdFPxnfq-19">
          <mxGeometry x="-0.3656" relative="1" as="geometry">
            <mxPoint as="offset" />
          </mxGeometry>
        </mxCell>
        <mxCell id="hNqhsEIu-VsiZdFPxnfq-21" value="&lt;font style=&quot;font-size: 9px;&quot;&gt;UIChannelMessage&lt;/font&gt;" style="shape=mxgraph.signs.tech.mail;html=1;pointerEvents=1;fillColor=#B3E5FC;strokeColor=#0277BD;verticalLabelPosition=bottom;verticalAlign=top;align=center;sketch=0;" vertex="1" parent="hNqhsEIu-VsiZdFPxnfq-14">
          <mxGeometry x="379" y="30" width="80" height="40" as="geometry" />
        </mxCell>
        <mxCell id="hNqhsEIu-VsiZdFPxnfq-22" style="edgeStyle=orthogonalEdgeStyle;rounded=0;orthogonalLoop=1;jettySize=auto;html=1;strokeColor=#0277BD;strokeWidth=1;dashed=1;startArrow=classic;startFill=1;endArrow=none;endFill=0;" edge="1" parent="hNqhsEIu-VsiZdFPxnfq-14" source="hNqhsEIu-VsiZdFPxnfq-21">
          <mxGeometry relative="1" as="geometry">
            <mxPoint x="540" y="-0.05999999999994543" as="targetPoint" />
          </mxGeometry>
        </mxCell>
        <mxCell id="hNqhsEIu-VsiZdFPxnfq-23" value="&lt;font style=&quot;font-size: 8px;&quot;&gt;UIInMessage&lt;/font&gt;" style="edgeLabel;html=1;align=center;verticalAlign=middle;resizable=0;points=[];" vertex="1" connectable="0" parent="hNqhsEIu-VsiZdFPxnfq-22">
          <mxGeometry x="-0.4127" relative="1" as="geometry">
            <mxPoint as="offset" />
          </mxGeometry>
        </mxCell>
        <mxCell id="hNqhsEIu-VsiZdFPxnfq-24" value="&lt;b&gt;Canal SYS&lt;/b&gt;&lt;br&gt;1. MCPLauncher inicia&lt;br&gt;2. Spawn DevOpsServer&lt;br&gt;3. Socket.IO sync&lt;br&gt;4. Orchestrator routing&lt;br&gt;5. DevOps ready signal" style="text;html=1;strokeColor=#FF6D00;fillColor=#FFE0B2;align=left;verticalAlign=top;whiteSpace=wrap;rounded=1;fontSize=10;spacingLeft=5;spacingTop=5;" vertex="1" parent="hNqhsEIu-VsiZdFPxnfq-14">
          <mxGeometry x="188" y="160" width="140" height="100" as="geometry" />
        </mxCell>
        <mxCell id="hNqhsEIu-VsiZdFPxnfq-25" value="&lt;font style=&quot;color: light-dark(rgb(0, 0, 0), rgb(255, 249, 248));&quot;&gt;&lt;b&gt;Canal APP&lt;/b&gt;&lt;br&gt;1. MCPLauncher inicia&lt;br&gt;2. Spawn DevOpsServer&lt;br&gt;3. Socket.IO sync&lt;br&gt;4. Orchestrator routing&lt;br&gt;5. DevOps ready signal&lt;/font&gt;" style="text;html=1;strokeColor=#005700;fillColor=#008a00;align=left;verticalAlign=top;whiteSpace=wrap;rounded=1;fontSize=10;spacingLeft=5;spacingTop=5;fontColor=#ffffff;" vertex="1" parent="hNqhsEIu-VsiZdFPxnfq-14">
          <mxGeometry y="160" width="140" height="100" as="geometry" />
        </mxCell>
        <mxCell id="hNqhsEIu-VsiZdFPxnfq-26" value="&lt;font style=&quot;color: light-dark(rgb(0, 0, 0), rgb(255, 255, 255));&quot;&gt;&lt;b&gt;Canal UI&lt;/b&gt;&lt;br&gt;1. MCPLauncher inicia&lt;br&gt;2. Spawn DevOpsServer&lt;br&gt;3. Socket.IO sync&lt;br&gt;4. Orchestrator routing&lt;br&gt;5. DevOps ready signal&lt;/font&gt;" style="text;html=1;strokeColor=#006EAF;fillColor=#1ba1e2;align=left;verticalAlign=top;whiteSpace=wrap;rounded=1;fontSize=10;spacingLeft=5;spacingTop=5;fontColor=#ffffff;" vertex="1" parent="hNqhsEIu-VsiZdFPxnfq-14">
          <mxGeometry x="376" y="160" width="140" height="100" as="geometry" />
        </mxCell>
        <mxCell id="hNqhsEIu-VsiZdFPxnfq-27" style="edgeStyle=orthogonalEdgeStyle;rounded=0;orthogonalLoop=1;jettySize=auto;html=1;strokeColor=#2D7600;strokeWidth=2;endArrow=classic;endFill=1;fillColor=#60a917;" edge="1" parent="hNqhsEIu-VsiZdFPxnfq-9">
          <mxGeometry relative="1" as="geometry">
            <Array as="points">
              <mxPoint x="160" y="20.059999999999945" />
              <mxPoint x="70" y="20.059999999999945" />
              <mxPoint x="70" y="50.059999999999945" />
            </Array>
            <mxPoint x="160" y="30.059999999999945" as="sourcePoint" />
            <mxPoint x="150" y="50.059999999999945" as="targetPoint" />
          </mxGeometry>
        </mxCell>
        <mxCell id="hNqhsEIu-VsiZdFPxnfq-28" value="&lt;font style=&quot;font-size: 8px;&quot;&gt;AppOutMessage&lt;/font&gt;" style="edgeLabel;html=1;align=center;verticalAlign=middle;resizable=0;points=[];fontSize=11;fontStyle=1;labelBackgroundColor=#FFFFFF;" vertex="1" connectable="0" parent="hNqhsEIu-VsiZdFPxnfq-27">
          <mxGeometry x="-0.2" y="1" relative="1" as="geometry">
            <mxPoint y="-10" as="offset" />
          </mxGeometry>
        </mxCell>
        <mxCell id="hNqhsEIu-VsiZdFPxnfq-29" value="" style="group" vertex="1" connectable="0" parent="1">
          <mxGeometry x="290" y="290" width="400" height="400" as="geometry" />
        </mxCell>
        <mxCell id="hNqhsEIu-VsiZdFPxnfq-30" value="" style="rounded=1;whiteSpace=wrap;html=1;fillColor=#FFF2CC;strokeColor=#D6B656;strokeWidth=3;dashed=1;" vertex="1" parent="hNqhsEIu-VsiZdFPxnfq-29">
          <mxGeometry width="400" height="400" as="geometry" />
        </mxCell>
        <mxCell id="hNqhsEIu-VsiZdFPxnfq-31" value="MCPLauncherServer" style="text;html=1;strokeColor=none;fillColor=none;align=center;verticalAlign=middle;whiteSpace=wrap;rounded=0;fontSize=16;fontStyle=1;" vertex="1" parent="hNqhsEIu-VsiZdFPxnfq-29">
          <mxGeometry x="120" y="15" width="160" height="30" as="geometry" />
        </mxCell>
        <mxCell id="hNqhsEIu-VsiZdFPxnfq-32" value="Orchestrator&lt;br&gt;(RxJS)" style="rounded=1;whiteSpace=wrap;html=1;fontSize=12;fillColor=#FFFFFF;strokeColor=#000000;fontStyle=1;" vertex="1" parent="hNqhsEIu-VsiZdFPxnfq-29">
          <mxGeometry x="130" y="60" width="140" height="60" as="geometry" />
        </mxCell>
        <mxCell id="hNqhsEIu-VsiZdFPxnfq-33" value="app" style="rounded=1;whiteSpace=wrap;html=1;fontSize=11;fillColor=#60a917;strokeColor=#2D7600;fontColor=#ffffff;fontStyle=1;" vertex="1" parent="hNqhsEIu-VsiZdFPxnfq-29">
          <mxGeometry x="50" y="150" width="70" height="35" as="geometry" />
        </mxCell>
        <mxCell id="hNqhsEIu-VsiZdFPxnfq-34" value="sys" style="rounded=1;whiteSpace=wrap;html=1;fontSize=11;fillColor=#FFE0B2;strokeColor=#FF6D00;fontStyle=1;" vertex="1" parent="hNqhsEIu-VsiZdFPxnfq-29">
          <mxGeometry x="165" y="150" width="70" height="35" as="geometry" />
        </mxCell>
        <mxCell id="hNqhsEIu-VsiZdFPxnfq-35" value="ui" style="rounded=1;whiteSpace=wrap;html=1;fontSize=11;fillColor=#1ba1e2;strokeColor=#006EAF;fontColor=#ffffff;fontStyle=1;" vertex="1" parent="hNqhsEIu-VsiZdFPxnfq-29">
          <mxGeometry x="280" y="150" width="70" height="35" as="geometry" />
        </mxCell>
        <mxCell id="hNqhsEIu-VsiZdFPxnfq-36" value="Socket.IO Client&lt;br&gt;(AlephScript Rooms)" style="rounded=1;whiteSpace=wrap;html=1;fontSize=11;fillColor=#E1F5FE;strokeColor=#01579B;fontStyle=1;" vertex="1" parent="hNqhsEIu-VsiZdFPxnfq-29">
          <mxGeometry x="130" y="220" width="140" height="60" as="geometry" />
        </mxCell>
        <mxCell id="hNqhsEIu-VsiZdFPxnfq-37" value="MCPDriverAdapter" style="rounded=1;whiteSpace=wrap;html=1;fontSize=11;fillColor=#F3E5F5;strokeColor=#6A1B9A;fontStyle=1;" vertex="1" parent="hNqhsEIu-VsiZdFPxnfq-29">
          <mxGeometry x="130" y="310" width="140" height="60" as="geometry" />
        </mxCell>
      </root>
    </mxGraphModel>
  </diagram>
</mxfile>
